HIERARCHY
ROOT Hips
{
	OFFSET 0.000000 0.000000 0.000000
	CHANNELS 6 Xposition Yposition Zposition Xrotation Yrotation Zrotation
	JOINT LeftUpLeg_virtual
	{
		OFFSET 0.000000 0.000000 0.000000
		CHANNELS 3 Xrotation Yrotation Zrotation
		JOINT LeftUpLeg
		{
			OFFSET 13.026900 -6.336304 -1.092800
			CHANNELS 3 Xrotation Yrotation Zrotation
			JOINT LeftLeg
			{
				OFFSET 0.524474 -46.096886 9.782700
				CHANNELS 3 Xrotation Yrotation Zrotation
				JOINT LeftFoot
				{
					OFFSET -0.524474 -53.427422 -12.948200
					CHANNELS 3 Xrotation Yrotation Zrotation
					JOINT LeftToeBase
					{
						OFFSET 0.192200 -14.009700 16.364100
						CHANNELS 3 Xrotation Yrotation Zrotation
						JOINT LeftToe_End
						{
							OFFSET -1.784700 -0.561700 9.474800
							CHANNELS 3 Xrotation Yrotation Zrotation
							End Site
							{
								OFFSET 0 0 0
							}
						}
					}
				}
			}
		}
	}
	JOINT RightUpLeg_virtual
	{
		OFFSET 0.000000 0.000000 0.000000
		CHANNELS 3 Xrotation Yrotation Zrotation
		JOINT RightUpLeg
		{
			OFFSET -12.883000 -6.336304 -1.092800
			CHANNELS 3 Xrotation Yrotation Zrotation
			JOINT RightLeg
			{
				OFFSET -0.524587 -46.096825 9.782800
				CHANNELS 3 Xrotation Yrotation Zrotation
				JOINT RightFoot
				{
					OFFSET 0.524587 -53.427383 -12.948300
					CHANNELS 3 Xrotation Yrotation Zrotation
					JOINT RightToeBase
					{
						OFFSET -0.192200 -14.009700 16.364100
						CHANNELS 3 Xrotation Yrotation Zrotation
						JOINT RightToe_End
						{
							OFFSET 1.784700 -0.561700 9.474800
							CHANNELS 3 Xrotation Yrotation Zrotation
							End Site
							{
								OFFSET 0 0 0
							}
						}
					}
				}
			}
		}
	}
	JOINT Spine_virtual
	{
		OFFSET 0.000000 0.000000 0.000000
		CHANNELS 3 Xrotation Yrotation Zrotation
		JOINT Spine
		{
			OFFSET 0.072000 7.257294 -0.789700
			CHANNELS 3 Xrotation Yrotation Zrotation
			JOINT Spine1
			{
				OFFSET 0.000000 12.508769 -0.658067
				CHANNELS 3 Xrotation Yrotation Zrotation
				JOINT Spine1_split
				{
					OFFSET 0.000000 12.508769 -0.658067
					CHANNELS 3 Xrotation Yrotation Zrotation
					JOINT Spine2
					{
						OFFSET 0.000000 12.508769 -0.658067
						CHANNELS 3 Xrotation Yrotation Zrotation
						JOINT Neck_virtual
						{
							OFFSET 0.000000 0.000000 0.000000
							CHANNELS 3 Xrotation Yrotation Zrotation
							JOINT Neck
							{
								OFFSET 0.000000 14.033295 7.520400
								CHANNELS 3 Xrotation Yrotation Zrotation
								JOINT Head
								{
									OFFSET 0.000000 8.198502 5.703100
									CHANNELS 3 Xrotation Yrotation Zrotation
									JOINT HeadTop_End
									{
										OFFSET 0.000000 17.760803 13.332701
										CHANNELS 3 Xrotation Yrotation Zrotation
										End Site
										{
											OFFSET 0 0 0
										}
									}
								}
							}
						}
						JOINT LeftShoulder_virtual
						{
							OFFSET 0.000000 0.000000 0.000000
							CHANNELS 3 Xrotation Yrotation Zrotation
							JOINT LeftShoulder
							{
								OFFSET 6.292450 5.785301 -0.669000
								CHANNELS 3 Xrotation Yrotation Zrotation
								JOINT LeftShoulder_split
								{
									OFFSET 6.292450 5.785301 -0.669000
									CHANNELS 3 Xrotation Yrotation Zrotation
									JOINT LeftArm
									{
										OFFSET 13.907140 -6.093903 1.965100
										CHANNELS 3 Xrotation Yrotation Zrotation
										JOINT LeftForeArm
										{
											OFFSET 34.140198 0.000000 0.000000
											CHANNELS 3 Xrotation Yrotation Zrotation
											JOINT LeftHand
											{
												OFFSET 40.960209 0.000000 0.000000
												CHANNELS 3 Xrotation Yrotation Zrotation
												End Site
												{
													OFFSET 0 0 0
												}
											}
										}
									}
								}
							}
						}
						JOINT RightShoulder_virtual
						{
							OFFSET 0.000000 0.000000 0.000000
							CHANNELS 3 Xrotation Yrotation Zrotation
							JOINT RightShoulder
							{
								OFFSET -6.292450 5.785301 -0.669000
								CHANNELS 3 Xrotation Yrotation Zrotation
								JOINT RightShoulder_split
								{
									OFFSET -6.292450 5.785301 -0.669000
									CHANNELS 3 Xrotation Yrotation Zrotation
									JOINT RightArm
									{
										OFFSET -13.907140 -6.093903 1.965100
										CHANNELS 3 Xrotation Yrotation Zrotation
										JOINT RightForeArm
										{
											OFFSET -34.140198 0.000000 0.000000
											CHANNELS 3 Xrotation Yrotation Zrotation
											JOINT RightHand
											{
												OFFSET -40.960209 0.000000 0.000000
												CHANNELS 3 Xrotation Yrotation Zrotation
												End Site
												{
													OFFSET 0 0 0
												}
											}
										}
									}
								}
							}
						}
					}
				}
			}
		}
	}
}
MOTION
Frames: 8
Frame Time: 0.03333333
-1.697685 109.013390 -5.211323 0.000000 0.000000 0.000000 -23.274993 -10.379616 -1.133036 9.357430 23.451723 2.827459 34.666246 13.470455 -8.222475 -22.678861 26.798746 8.452032 -2.788389 -0.602463 -1.419776 0.000000 0.000000 0.000000 -21.355189 -11.023530 -1.440789 17.119406 -11.661964 -0.518874 26.082411 -8.661450 -2.454070 -16.987514 -24.940687 2.660857 -8.917508 -0.424168 0.720780 0.000000 0.000000 0.000000 -21.061305 -9.263427 -1.097327 9.528513 -3.644956 -1.243739 3.301578 -1.043738 0.024326 0.606019 1.736773 -0.064030 0.000000 0.000000 0.000000 3.486728 -2.140297 0.133689 2.188612 2.326153 -4.849547 -4.465631 -1.272406 3.748302 0.000000 0.000000 0.000000 4.030635 -2.520959 0.271270 0.974132 -15.519569 -11.574791 0.743048 -0.677068 -0.514628 -20.617447 0.294835 -38.383819 3.019496 -67.067185 2.674190 0.000000 0.000000 0.000000 3.383987 -2.176902 0.232615 -0.404927 12.749988 16.705797 1.723531 3.324302 -1.610967 -10.444363 -6.352643 62.374483 -0.616904 42.252582 1.700778 0.000000 0.000000 0.000000 
-1.822226 108.759689 -5.315006 0.000000 0.000000 0.000000 -23.424818 -11.018150 -1.403412 8.480978 22.902285 4.023736 36.276719 13.052869 -8.349352 -21.956734 26.188460 8.064399 -2.677397 -0.426037 -1.762863 0.000000 0.000000 0.000000 -21.362007 -10.790204 -1.493166 17.171159 -12.036514 -0.212907 25.465010 -8.906772 -2.498615 -17.399086 -24.908004 2.557836 -9.000333 -0.355495 0.573104 0.000000 0.000000 0.000000 -21.372611 -9.690111 -1.466198 9.749536 -3.850277 -1.295878 3.238430 -1.108479 0.029774 0.617487 1.314543 0.017193 0.000000 0.000000 0.000000 3.587291 -2.147343 0.139242 2.181428 2.248710 -4.666475 -4.553540 -1.386010 3.900224 0.000000 0.000000 0.000000 4.012739 -2.531958 0.298510 0.957596 -15.551210 -11.577113 0.685786 -0.896295 -0.359788 -20.703536 0.137578 -38.578175 3.115698 -67.197621 2.781985 0.000000 0.000000 0.000000 3.334888 -2.216025 0.240868 -0.399769 12.679223 16.691399 1.839874 2.803420 -1.524262 -10.655701 -6.487275 62.355304 -0.626534 42.384042 1.704851 0.000000 0.000000 0.000000 
-2.204491 108.612167 -5.290325 0.000000 0.000000 0.000000 -23.488380 -11.998982 -2.158989 5.926302 21.898772 6.420521 39.397750 12.052925 -8.437190 -20.455238 24.475826 7.213210 -2.443960 -0.252762 -2.280001 0.000000 0.000000 0.000000 -21.543779 -10.961310 -2.064714 17.529177 -12.716550 0.366881 24.374848 -9.080589 -2.398169 -18.202784 -24.666752 2.078056 -8.314201 -0.262207 0.425457 0.000000 0.000000 0.000000 -21.613176 -10.782338 -2.329289 9.908353 -4.032157 -1.220192 3.183706 -1.179007 0.037743 0.643149 1.053186 0.232468 0.000000 0.000000 0.000000 3.706140 -2.153963 0.125813 2.084798 2.100251 -4.354871 -4.768141 -1.675144 4.262274 0.000000 0.000000 0.000000 4.016280 -2.536052 0.308359 0.943549 -15.486033 -11.521293 0.599197 -1.058348 -0.311670 -21.069935 0.093034 -38.768615 3.192267 -67.184801 2.899551 0.000000 0.000000 0.000000 3.280898 -2.277535 0.220355 -0.406208 12.609670 16.630116 1.888717 2.500699 -1.389240 -10.900413 -6.638405 62.292766 -0.622487 42.495531 1.722520 0.000000 0.000000 0.000000 
-2.524292 108.610519 -5.174778 0.000000 0.000000 0.000000 -23.564028 -13.197140 -3.251431 2.311080 20.436887 9.319242 42.991622 10.640259 -8.325614 -18.721393 21.691212 6.060245 -2.615480 -0.142865 -2.622388 0.000000 0.000000 0.000000 -21.915690 -11.729553 -3.055433 18.001127 -13.487862 0.943870 23.229840 -9.014736 -2.155852 -18.880552 -24.260094 1.594746 -7.309925 -0.164536 0.298569 0.000000 0.000000 0.000000 -21.812499 -12.476526 -3.500973 10.010943 -4.146794 -1.017611 3.162758 -1.215981 0.042539 0.817516 1.002408 0.375633 0.000000 0.000000 0.000000 3.795920 -2.155711 0.098452 1.927560 1.922377 -4.013577 -5.069862 -2.056821 4.696116 0.000000 0.000000 0.000000 4.025861 -2.532839 0.302042 0.931604 -15.355778 -11.404261 0.420696 -1.156159 -0.382220 -21.554038 0.206574 -38.884687 3.184243 -67.015603 2.952256 0.000000 0.000000 0.000000 3.239730 -2.337143 0.185414 -0.418946 12.586105 16.546229 1.868980 2.469846 -1.337998 -11.084055 -6.784000 62.194856 -0.597008 42.527258 1.742847 0.000000 0.000000 0.000000 
-2.678190 108.743515 -4.786617 0.000000 0.000000 0.000000 -23.761135 -14.554513 -4.478235 -1.393669 18.438446 11.781159 45.974809 9.087802 -7.879016 -17.319070 18.060412 4.653010 -3.257116 -0.125025 -2.564301 0.000000 0.000000 0.000000 -22.436116 -13.099832 -4.251967 18.368470 -14.131222 1.181034 22.359078 -8.443197 -1.819139 -18.872281 -23.705049 1.722914 -6.717471 -0.086654 0.201637 0.000000 0.000000 0.000000 -22.061219 -14.676611 -4.771097 10.109121 -4.198529 -0.772587 3.180134 -1.215297 0.038197 0.972370 1.029325 0.357633 0.000000 0.000000 0.000000 3.823113 -2.156537 0.071787 1.794545 1.808002 -3.740814 -5.372735 -2.354538 5.053152 0.000000 0.000000 0.000000 4.033700 -2.526864 0.287476 0.927314 -15.217100 -11.233760 0.232180 -1.199236 -0.549913 -21.945493 0.414263 -38.895953 3.063704 -66.805438 2.892077 0.000000 0.000000 0.000000 3.215661 -2.377615 0.149901 -0.414642 12.598583 16.450789 1.777628 2.567573 -1.379570 -11.139251 -6.887538 62.056920 -0.548236 42.453106 1.750231 0.000000 0.000000 0.000000 
-2.582655 108.899719 -4.097992 0.000000 0.000000 0.000000 -24.022218 -16.122428 -5.624099 -4.673967 16.105105 13.165839 47.897695 7.604629 -7.126891 -16.247461 14.120251 2.769478 -3.716217 -0.194594 -2.210766 0.000000 0.000000 0.000000 -22.979943 -15.006595 -5.401649 18.420966 -14.468615 0.897420 21.972201 -7.315698 -1.475792 -18.122558 -23.019950 2.499253 -6.666625 -0.031072 0.147370 0.000000 0.000000 0.000000 -22.487614 -17.221308 -5.955092 10.229126 -4.203454 -0.567798 3.226073 -1.190040 0.032332 0.909266 1.189029 0.273519 0.000000 0.000000 0.000000 3.788883 -2.164430 0.056341 1.748187 1.805767 -3.620861 -5.584691 -2.407376 5.209153 0.000000 0.000000 0.000000 4.038868 -2.524913 0.267160 0.930837 -15.124525 -11.039392 0.111759 -1.201000 -0.689824 -22.084834 0.643919 -38.829841 2.852595 -66.659450 2.719610 0.000000 0.000000 0.000000 3.204878 -2.393322 0.134136 -0.379255 12.641431 16.367835 1.609761 2.694251 -1.446397 -11.028633 -6.958284 61.899498 -0.477920 42.355840 1.732290 0.000000 0.000000 0.000000 
-2.301399 109.019096 -3.156525 0.000000 0.000000 0.000000 -24.367834 -18.152333 -6.654168 -7.212004 13.644367 13.340294 48.555193 6.324678 -6.054498 -15.118735 10.403295 0.338039 -3.879687 -0.296866 -1.606495 0.000000 0.000000 0.000000 -23.551966 -17.464973 -6.415472 17.999072 -14.429405 0.117729 21.989432 -5.817722 -1.193212 -17.111816 -22.201854 3.410294 -6.551197 0.000033 0.182051 0.000000 0.000000 0.000000 -23.160963 -19.898703 -6.977052 10.394214 -4.216313 -0.465209 3.279724 -1.175047 0.027703 0.806766 1.278727 0.101437 0.000000 0.000000 0.000000 3.726308 -2.178389 0.056081 1.852381 1.900380 -3.667945 -5.654000 -2.211514 5.133054 0.000000 0.000000 0.000000 4.025528 -2.534327 0.258431 0.942153 -15.085205 -10.844617 0.004716 -1.195682 -0.758875 -21.959924 0.813641 -38.758267 2.576419 -66.617403 2.459929 0.000000 0.000000 0.000000 3.199978 -2.394193 0.152161 -0.304317 12.658425 16.300608 1.427588 2.828674 -1.492038 -10.761061 -7.021205 61.742554 -0.395985 42.298159 1.681889 0.000000 0.000000 0.000000 
-1.895396 109.122955 -2.119717 0.000000 0.000000 0.000000 -24.843326 -20.940382 -7.689424 -8.736770 11.184868 12.295315 47.884329 5.545851 -4.727573 -13.889755 7.477516 -2.247875 -3.773636 -0.378121 -0.874894 0.000000 0.000000 0.000000 -24.098431 -20.261695 -7.344453 17.173821 -14.125695 -0.979437 22.247617 -4.246649 -0.996420 -16.412123 -21.308440 3.905751 -5.907146 0.026101 0.327735 0.000000 0.000000 0.000000 -24.023155 -22.505185 -7.960848 10.597839 -4.248928 -0.471239 3.306425 -1.185201 0.032989 0.717246 1.240079 -0.076480 0.000000 0.000000 0.000000 3.673300 -2.192037 0.079410 2.087830 2.045891 -3.823820 -5.563678 -1.887483 4.882959 0.000000 0.000000 0.000000 3.990016 -2.553812 0.262700 0.960323 -15.091078 -10.688221 0.014355 -1.179587 -0.707662 -21.669357 0.840071 -38.752338 2.301537 -66.655680 2.173362 0.000000 0.000000 0.000000 3.193554 -2.393899 0.196713 -0.196083 12.623245 16.244434 1.222733 2.942216 -1.526574 -10.360666 -7.055725 61.620853 -0.320548 42.279892 1.607412 0.000000 0.000000 0.000000 
